<svg xmlns:xlink="http://www.w3.org/1999/xlink" xmlns="http://www.w3.org/2000/svg" width="23" height="23" viewBox="0 0 23 23" fill="none">
<g opacity="1">
<path d="M19.632 19.632C24.1227 15.1412 24.1227 7.85877 19.632 3.36805C15.1412 -1.12268 7.85877 -1.12268 3.36805 3.36804C-1.12268 7.85877 -1.12268 15.1412 3.36805 19.632C7.85877 24.1227 15.1412 24.1227 19.632 19.632ZM4.74757 4.74757C8.47593 1.01922 14.5241 1.01922 18.2524 4.74757C21.9808 8.47593 21.9808 14.5241 18.2524 18.2524C14.5241 21.9808 8.47593 21.9808 4.74757 18.2524C1.01922 14.5241 1.01922 8.47593 4.74757 4.74757Z" fill="white"/>
<path d="M13.2376 6.27207L14.3993 7.43378L10.3331 11.4999L14.3993 15.566L13.2376 16.7278L8.02514 11.5153L8.02697 11.5135L8.01157 11.4981L13.2376 6.27207Z" fill="white"/>
</g>
</svg>