<svg xmlns:xlink="http://www.w3.org/1999/xlink" viewBox="0 0 36 36" xmlns="http://www.w3.org/2000/svg" width="40"  height="40" ><path clip-rule="evenodd" d="M18.9844 12.375H17.8594C16.3061 12.375 15.0469 13.6342 15.0469 15.1875V16.3125C15.0469 17.0013 15.2945 17.6323 15.7056 18.1213C14.8895 18.6136 14.3438 19.5087 14.3438 20.5312V23.0625H16.5938V20.5312C16.5938 20.2206 16.8456 19.9688 17.1562 19.9688H19.6875C19.9982 19.9688 20.25 20.2206 20.25 20.5312V23.0625H22.5V20.5312C22.5 19.5087 21.9543 18.6136 21.1382 18.1213C21.5493 17.6323 21.7969 17.0013 21.7969 16.3125V15.1875C21.7969 13.6342 20.5377 12.375 18.9844 12.375ZM19.5469 16.3125V15.1875C19.5469 14.8768 19.295 14.625 18.9844 14.625H17.8594C17.5487 14.625 17.2969 14.8768 17.2969 15.1875V16.3125C17.2969 16.6232 17.5487 16.875 17.8594 16.875H18.9844C19.295 16.875 19.5469 16.6232 19.5469 16.3125Z" fill-rule="evenodd"></path><path clip-rule="evenodd" d="M14.3438 7.875C12.0138 7.875 10.125 9.7638 10.125 12.0938V12.6562H7.59375V15.4688H10.125V16.5938H7.59375V19.4062H10.125V20.5312H7.59375V23.3438H10.125V23.9062C10.125 26.2362 12.0138 28.125 14.3438 28.125H22.5C24.83 28.125 26.7188 26.2362 26.7188 23.9062V12.0938C26.7188 9.7638 24.83 7.875 22.5 7.875H14.3438ZM12.9375 12.0938C12.9375 11.3171 13.5671 10.6875 14.3438 10.6875H22.5C23.2767 10.6875 23.9062 11.3171 23.9062 12.0938V23.9062C23.9062 24.6829 23.2766 25.3125 22.5 25.3125H14.3438C13.5671 25.3125 12.9375 24.6829 12.9375 23.9062V12.0938Z" fill-rule="evenodd"></path></svg>