<svg xmlns:xlink="http://www.w3.org/1999/xlink" viewBox="0 0 36 36" xmlns="http://www.w3.org/2000/svg" width="40"  height="40" ><path clip-rule="evenodd" d="M19.8168 8.00596C18.7682 7.11866 17.232 7.11866 16.1834 8.00596L8.27002 14.7019C7.08425 15.7052 6.93636 17.4799 7.93971 18.6656L9.84385 17.0544V23.3437C9.84385 25.6737 11.7326 27.5625 14.0626 27.5625H21.9376C24.2675 27.5625 26.1563 25.6737 26.1563 23.3437V17.0544L28.0605 18.6656C29.0638 17.4799 28.916 15.7052 27.7302 14.7019L19.8168 8.00596ZM23.3438 14.6746L18.0001 10.153L12.6563 14.6746V23.3437C12.6563 24.1204 13.2859 24.75 14.0626 24.75H21.9376C22.7142 24.75 23.3438 24.1204 23.3438 23.3437V14.6746Z" fill-rule="evenodd"></path></svg>