<svg width="40" height="40" viewBox="0 0 40 40" fill="none" xmlns="http://www.w3.org/2000/svg">
<path fill-rule="evenodd" clip-rule="evenodd" d="M11.6665 6.66634C11.2245 6.66634 10.8006 6.84194 10.488 7.1545C10.1754 7.46706 9.99984 7.89098 9.99984 8.33301V31.6663C9.99984 32.1084 10.1754 32.5323 10.488 32.8448C10.8006 33.1574 11.2245 33.333 11.6665 33.333H28.3332C28.7752 33.333 29.1991 33.1574 29.5117 32.8448C29.8242 32.5323 29.9998 32.1084 29.9998 31.6663L29.9998 15.69L20.9763 6.66652L11.6665 6.66634ZM8.13097 4.79747C9.06865 3.85979 10.3404 3.33301 11.6665 3.33301H20.9765C21.8604 3.3332 22.7084 3.68444 23.3333 4.3095M23.3333 4.3095L32.3565 13.3327C32.3566 13.3327 32.3564 13.3326 32.3565 13.3327C32.9816 13.9576 33.333 14.8054 33.3332 15.6893V31.6663C33.3332 32.9924 32.8064 34.2642 31.8687 35.2019C30.931 36.1396 29.6593 36.6663 28.3332 36.6663H11.6665C10.3404 36.6663 9.06865 36.1396 8.13097 35.2019C7.19329 34.2642 6.6665 32.9924 6.6665 31.6663V8.33301C6.6665 7.00693 7.19329 5.73516 8.13097 4.79747M13.3332 19.9997C13.3332 19.0792 14.0794 18.333 14.9998 18.333H24.9998C25.9203 18.333 26.6665 19.0792 26.6665 19.9997C26.6665 20.9201 25.9203 21.6663 24.9998 21.6663H14.9998C14.0794 21.6663 13.3332 20.9201 13.3332 19.9997ZM13.3332 26.6663C13.3332 25.7459 14.0794 24.9997 14.9998 24.9997H24.9998C25.9203 24.9997 26.6665 25.7459 26.6665 26.6663C26.6665 27.5868 25.9203 28.333 24.9998 28.333H14.9998C14.0794 28.333 13.3332 27.5868 13.3332 26.6663Z" fill="black"/>
<rect x="13.3335" y="18.333" width="13.3333" height="3.33333" rx="1.66667" fill="black"/>
<rect x="13.3335" y="25" width="13.3333" height="3.33333" rx="1.66667" fill="black"/>
</svg>
