<svg xmlns="http://www.w3.org/2000/svg" viewBox="0 0 36 36" ><path d="M11.0478 23.1016L14.5584 19.591C15.4371 18.7123 15.4371 17.2877 14.5584 16.409L11.0478 12.8984C9.94944 11.8 8.16866 11.8 7.07031 12.8984L12.1719 18L7.07031 23.1016C8.16866 24.2 9.94944 24.2 11.0478 23.1016Z"></path><path d="M21.2102 19.591L17.6996 23.1016C16.6012 24.2 14.8204 24.2 13.7221 23.1016L18.8237 18L13.7221 12.8984C14.8204 11.8 16.6012 11.8 17.6996 12.8984L21.2102 16.409C22.0889 17.2877 22.0889 18.7123 21.2102 19.591Z"></path><path d="M27.9602 19.591L24.4496 23.1016C23.3512 24.2 21.5704 24.2 20.4721 23.1016L25.5737 18L20.4721 12.8984C21.5704 11.8 23.3512 11.8 24.4496 12.8984L27.9602 16.409C28.8389 17.2877 28.8389 18.7123 27.9602 19.591Z"></path></svg>