<svg xmlns:xlink="http://www.w3.org/1999/xlink" viewBox="0 0 36 36" xmlns="http://www.w3.org/2000/svg" width="40"  height="40" ><path d="M14.0625 15.4688H21.9375V12.6562H14.0625V15.4688Z"></path><path d="M21.9375 19.4062H14.0625V16.5938H21.9375V19.4062Z"></path><path d="M14.0625 23.3438H21.9375V20.5312H14.0625V23.3438Z"></path><path clip-rule="evenodd" d="M13.7812 7.875C11.4513 7.875 9.5625 9.7638 9.5625 12.0938V23.9062C9.5625 26.2362 11.4513 28.125 13.7812 28.125H22.2188C24.5487 28.125 26.4375 26.2362 26.4375 23.9062V12.0938C26.4375 9.7638 24.5487 7.875 22.2188 7.875H13.7812ZM12.375 12.0938C12.375 11.3171 13.0046 10.6875 13.7812 10.6875H22.2188C22.9954 10.6875 23.625 11.3171 23.625 12.0938V23.9062C23.625 24.6829 22.9954 25.3125 22.2188 25.3125H13.7812C13.0046 25.3125 12.375 24.6829 12.375 23.9062V12.0938Z" fill-rule="evenodd"></path></svg>