<svg  viewBox="0 0 36 36" fill="none" xmlns="http://www.w3.org/2000/svg" width="40" height="40">
<path d="M26.6668 11.6667C26.6668 13.4348 25.9645 15.1305 24.7142 16.3807C23.464 17.631 21.7683 18.3333 20.0002 18.3333C18.2321 18.3333 16.5364 17.631 15.2861 16.3807C14.0359 15.1305 13.3335 13.4348 13.3335 11.6667C13.3335 9.89856 14.0359 8.20286 15.2861 6.95262C16.5364 5.70238 18.2321 5 20.0002 5C21.7683 5 23.464 5.70238 24.7142 6.95262C25.9645 8.20286 26.6668 9.89856 26.6668 11.6667V11.6667ZM20.0002 23.3333C16.906 23.3333 13.9385 24.5625 11.7506 26.7504C9.56266 28.9383 8.3335 31.9058 8.3335 35H31.6668C31.6668 31.9058 30.4377 28.9383 28.2497 26.7504C26.0618 24.5625 23.0944 23.3333 20.0002 23.3333V23.3333Z" stroke="black" stroke-width="2" stroke-linecap="round" stroke-linejoin="round"/>
</svg>
